<svg width="340" height="340" viewBox="0 0 340 340" fill="none" xmlns="http://www.w3.org/2000/svg">
<path d="M60 260L60 140C60 130.059 68.0589 122 78 122C87.9411 122 96 130.059 96 140L96 260C96 269.941 87.9411 278 78 278C68.0589 278 60 269.941 60 260Z" fill="black"/>
<path d="M120 260V144.186C120 120.046 114.239 109.242 109.804 104.461C105.556 99.8822 100.072 98.1956 94.1943 97.999C90.0531 97.9991 86.0523 97.9988 83.0635 97.999C81.5324 97.9991 80.2665 97.9999 79.3838 98H78.002C68.061 98.0005 60.0008 89.9419 60 80.001C59.9994 70.06 68.058 62.0008 77.999 62H79.3818C80.2647 61.9999 81.5304 61.9991 83.0615 61.999H94.75L95.001 62.0059C107.05 62.3412 123.241 66.0132 136.196 79.9775C149.011 93.7906 156 114.829 156 144.186V260C156 269.941 147.941 278 138 278C128.059 278 120 269.941 120 260Z" fill="black"/>
<path d="M216 79.9999L216 216.189C216 227.95 220.102 233.319 224.012 236.316C228.7 239.91 235.504 241.784 242.291 242L244.461 242C245.953 242 247.967 242.001 250.061 242.001C254.247 242.001 258.747 242.001 260 242.001C269.941 242.001 278 250.06 278 260.001C278 269.942 269.941 278.001 260 278.001C258.746 278.001 254.245 278.001 250.059 278.001C247.965 278.001 245.951 278 244.459 278L241.756 278L241.514 277.994C229.866 277.679 214.755 274.578 202.113 264.89C188.648 254.57 180 238.284 180 216.189L180 79.9999C180 70.0588 188.059 61.9999 198 61.9999C207.941 61.9999 216 70.0588 216 79.9999Z" fill="black"/>
<path d="M242 200L242 134C242 124.059 250.059 116 260 116C269.941 116 278 124.059 278 134L278 200C278 209.941 269.941 218 260 218C250.059 218 242 209.941 242 200Z" fill="black"/>
<path d="M278 80C278 89.9411 269.941 98 260 98C250.059 98 242 89.9411 242 80C242 70.0589 250.059 62 260 62C269.941 62 278 70.0589 278 80Z" fill="black"/>
</svg>
